<?xml version="1.0" encoding="utf-8"?>
<svg version="1.1" id="Layer_1" x="0px" y="0px" viewBox="0 0 512 512" style="enable-background:new 0 0 512 512;" xmlns="http://www.w3.org/2000/svg">
  <g style="opacity: 0.75;">
    <g>
      <path d="M435.2,0H76.8C53.274,0,34.133,19.14,34.133,42.667v426.667C34.133,492.86,53.274,512,76.8,512h187.733 c4.719,0,8.533-3.823,8.533-8.533V332.8c0-14.114,11.486-25.6,25.6-25.6h128c4.719,0,8.533-3.823,8.533-8.533 s-3.814-8.533-8.533-8.533h-128H114.466l70.767-70.767c3.336-3.336,3.336-8.73,0-12.066c-3.337-3.337-8.73-3.337-12.066,0 l-85.333,85.325c-0.785,0.794-1.408,1.741-1.843,2.782c-0.862,2.082-0.862,4.437,0,6.519c0.435,1.041,1.058,1.988,1.843,2.782 l85.333,85.333c1.664,1.664,3.849,2.5,6.033,2.5c2.185,0,4.369-0.836,6.033-2.5c3.336-3.337,3.336-8.73,0-12.066L114.466,307.2 h150.281c-5.41,7.151-8.747,15.957-8.747,25.6v162.133H76.8c-14.114,0-25.6-11.486-25.6-25.6V42.667 c0-14.114,11.486-25.6,25.6-25.6h358.4c14.114,0,25.6,11.486,25.6,25.6v252.467L292.634,463.3c-3.337,3.336-3.337,8.73,0,12.066 c3.336,3.336,8.73,3.336,12.066,0L475.366,304.7c1.604-1.596,2.5-3.772,2.5-6.033v-256C477.867,19.14,458.726,0,435.2,0z"/>
    </g>
  </g>
  <g style="opacity: 0.75;"/>
  <g style="opacity: 0.75;"/>
  <g style="opacity: 0.75;"/>
  <g style="opacity: 0.75;"/>
  <g style="opacity: 0.75;"/>
  <g style="opacity: 0.75;"/>
  <g style="opacity: 0.75;"/>
  <g style="opacity: 0.75;"/>
  <g style="opacity: 0.75;"/>
  <g style="opacity: 0.75;"/>
  <g style="opacity: 0.75;"/>
  <g style="opacity: 0.75;"/>
  <g style="opacity: 0.75;"/>
  <g style="opacity: 0.75;"/>
  <g style="opacity: 0.75;"/>
</svg>