<svg xmlns="http://www.w3.org/2000/svg" xmlns:lucid="lucid" width="280" height="160"><g lucid:page-tab-id="0_0"><path d="M20 20h80v40H20zM100 20h80v40h-80zM180 20h80v40h-80z" fill="#b2b2b2"/><path d="M20 60h80v40H20zM100 60h80v40h-80zM180 60h80v40h-80z" fill="#fff"/><path d="M20 100h80v40H20zM100 100h80v40h-80zM180 100h80v40h-80z" fill="#b2b2b2"/><path d="M20 20v40M100 20v40M180 20v40M260 20v40M20 60v40M100 60v40M180 60v40M260 60v40M20 100v40M100 100v40M180 100v40M260 100v40M20 20h80M100 20h80M180 20h80M20 60h80M100 60h80M180 60h80M20 100h80M20 140h80M100 100h80M100 140h80M180 100h80M180 140h80" stroke="#000" fill="none"/></g></svg>